<?xml version="1.0" encoding="UTF-8"?>
<svg width="21px" height="19px" viewBox="0 0 21 19" version="1.1" xmlns="http://www.w3.org/2000/svg" xmlns:xlink="http://www.w3.org/1999/xlink">
    <!-- Generator: Sketch 63.1 (92452) - https://sketch.com -->
    <title>Group 8</title>
    <desc>Created with Sketch.</desc>
    <g id="☀️-Pages--SecondMuse" stroke="none" stroke-width="1" fill="none" fill-rule="evenodd">
        <g id="Discover" transform="translate(-174.000000, -959.000000)">
            <g id="Group-3" transform="translate(0.000000, 942.000000)">
                <g id="Group-8" transform="translate(175.000000, 18.000000)">
                    <polygon id="Path-4" stroke="#000000" stroke-width="1.6" stroke-linejoin="round" points="1.24344979e-14 0.00147893309 3.12339633 17 15.5199386 17 18.6281613 0"></polygon>
                    <circle id="Oval" stroke="#000000" stroke-width="1.6" cx="9.24574916" cy="8.5001237" r="4.5"></circle>
                    <path d="M12.7457492,6.85626628 C12.7457492,6.85626628 13.0790825,6.60882809 13.7457492,6.1139517 L13.5737124,7.0001237 C13.0217369,6.90421875 12.7457492,6.85626628 12.7457492,6.85626628 Z" id="Path-5" stroke="#000000"></path>
                    <polygon id="Path-6" stroke="#000000" points="9.50904909 13.0001237 10.1044919 11.9921075 10.5688748 13.5919189"></polygon>
                    <polygon id="Path-7" stroke="#000000" points="5.35933325 6.5570377 5.77137123 7.5 4.35483873 7.19739276"></polygon>
                    <polyline id="Path-8" stroke="#FFFFFF" points="9.85706013 10.4328738 8.52609007 12.7920132 11.1405971 15.0722818"></polyline>
                    <polyline id="Path-9" stroke="#FFFFFF" points="11.3646104 7.40310454 13.7833092 7.78244654 14.7255929 5.02237932"></polyline>
                    <polyline id="Path-10" stroke="#FFFFFF" points="2.85337694 7.02851885 5.90000677 5.60349963 7.07671806 8.0001237"></polyline>
                </g>
            </g>
        </g>
    </g>
</svg>